<svg width="24" height="24" xmlns="http://www.w3.org/2000/svg">

 <g>
  <title>background</title>
  <rect fill="none" id="canvas_background" height="402" width="582" y="-1" x="-1"/>
 </g>
 <g>
  <title>Layer 1</title>
  <path id="svg_1" d="m0,0l24,0l0,24l-24,0l0,-24z" fill="none"/>
  <path fill="#212121" id="svg_2" d="m4,18l16,0c0.55,0 1,-0.45 1,-1s-0.45,-1 -1,-1l-16,0c-0.55,0 -1,0.45 -1,1s0.45,1 1,1zm0,-5l16,0c0.55,0 1,-0.45 1,-1s-0.45,-1 -1,-1l-16,0c-0.55,0 -1,0.45 -1,1s0.45,1 1,1zm-1,-6c0,0.55 0.45,1 1,1l16,0c0.55,0 1,-0.45 1,-1s-0.45,-1 -1,-1l-16,0c-0.55,0 -1,0.45 -1,1z"/>
 </g>
</svg>